<?xml version="1.0" encoding="UTF-8" standalone="no"?>
<svg
   version="1.0"
   width="500.000000pt"
   height="500.000000pt"
   viewBox="0 0 500.000000 500.000000"
   preserveAspectRatio="xMidYMid meet"
   id="svg24"
   sodipodi:docname="vite.svg"
   inkscape:version="1.2.2 (b0a8486541, 2022-12-01)"
   inkscape:export-filename="logo.svg"
   inkscape:export-xdpi="96"
   inkscape:export-ydpi="96"
   xmlns:inkscape="http://www.inkscape.org/namespaces/inkscape"
   xmlns:sodipodi="http://sodipodi.sourceforge.net/DTD/sodipodi-0.dtd"
   xmlns:xlink="http://www.w3.org/1999/xlink"
   xmlns="http://www.w3.org/2000/svg"
   xmlns:svg="http://www.w3.org/2000/svg">
  <defs
     id="defs28">
    <linearGradient
       inkscape:collect="always"
       id="linearGradient5271">
      <stop
         style="stop-color:#5b5b7b;stop-opacity:1;"
         offset="0.15644398"
         id="stop5267" />
      <stop
         style="stop-color:#787a99;stop-opacity:1;"
         offset="1"
         id="stop5269" />
    </linearGradient>
    <linearGradient
       inkscape:collect="always"
       id="linearGradient5163">
      <stop
         style="stop-color:#8888a7;stop-opacity:1;"
         offset="0.15644398"
         id="stop5159" />
      <stop
         style="stop-color:#88a7a7;stop-opacity:1;"
         offset="1"
         id="stop5161" />
    </linearGradient>
    <linearGradient
       id="linearGradient5141"
       inkscape:swatch="solid">
      <stop
         style="stop-color:#8888a7;stop-opacity:1;"
         offset="0"
         id="stop5139" />
    </linearGradient>
    <linearGradient
       inkscape:collect="always"
       xlink:href="#linearGradient5163"
       id="linearGradient5167"
       x1="69.38475"
       y1="275.24786"
       x2="431.36398"
       y2="275.24786"
       gradientUnits="userSpaceOnUse"
       spreadMethod="pad"
       gradientTransform="matrix(9.7722743,-4.5695007e-8,-4.8086348e-8,10.472593,-73.508627,-759.40357)" />
    <linearGradient
       inkscape:collect="always"
       xlink:href="#linearGradient5271"
       id="linearGradient5260"
       gradientUnits="userSpaceOnUse"
       x1="69.38475"
       y1="275.24786"
       x2="431.36398"
       y2="275.24786"
       spreadMethod="pad"
       gradientTransform="matrix(9.9999998,0,0,9.9999998,-2.3121908,-4996.2325)" />
    <filter
       inkscape:collect="always"
       style="color-interpolation-filters:sRGB"
       id="filter5263"
       x="-0.094295954"
       y="-0.099023242"
       width="1.1885919"
       height="1.1980465">
      <feGaussianBlur
         inkscape:collect="always"
         stdDeviation="142.22155"
         id="feGaussianBlur5265" />
    </filter>
  </defs>
  <g
     transform="matrix(0.11439918,0,0,-0.11439918,-5.6848256,506.51174)"
     fill="#000000"
     stroke="none"
     id="g22">
    <ellipse
       style="display:inline;mix-blend-mode:normal;fill:url(#linearGradient5260);fill-opacity:1;fill-rule:nonzero;stroke-width:7.5;filter:url(#filter5263)"
       id="path186-7"
       ry="1723.493"
       rx="1809.896"
       cy="-2243.7539"
       cx="2501.4314"
       transform="matrix(1.026626,0,0,-1.026626,-324.30156,-67.186362)" />
    <ellipse
       style="display:inline;opacity:1;mix-blend-mode:normal;fill:url(#linearGradient5167);fill-opacity:1;fill-rule:nonzero;stroke-width:7.58729"
       id="path186"
       ry="1804.9443"
       rx="1768.6802"
       cy="2123.1553"
       cx="2373.2188"
       transform="matrix(0.03952582,0.99921855,0.99940781,-0.03440975,0,0)" />
    <path
       id="path2"
       style="fill:#070831;fill-opacity:1;stroke-width:1.02663"
       d="m 2434.8472,3950.8531 c -27.5132,5.4185 -56.4467,5.7173 -78.4852,-0.8098 -54.9061,-16.8591 -81.9518,-50.6906 -95.9289,-120.3246 l -11.5423,-58.5672 45.498,-57.4866 45.6412,-56.4742 -9.6571,-76.3888 c -5.2792,-41.7594 -11.6932,-76.1316 -13.7302,-75.8741 -29.5371,3.7341 -239.3915,5.4229 -309.1774,1.8277 -115.5019,-5.0592 -140.2119,-12.2773 -158.6032,-51.3441 -12.6433,-26.3411 -26.0273,-33.9613 -102.9659,-53.2089 -210.9491,-56.1154 -436.1159,-175.6258 -542.473,-288.4251 -32.3928,-35.2271 -33.9347,-39.1736 -50.6738,-171.5811 l -17.1264,-135.471 -38.4586,-1.3377 c -61.3802,-2.5882 -95.8977,-13.7566 -115.41301,-37.1593 -10.84053,-12.0818 -31.87031,-22.8757 -48.68171,-24.8896 -16.68253,-0.9954 -42.92722,-12.1605 -57.97069,-24.746 -27.66346,-22.3725 -28.04731,-25.4328 -64.06598,-285.7872 -40.78282,-298.0394 -39.66791,-313.7046 23.82019,-351.7401 19.08272,-12.7603 48.09507,-37.12 63.34974,-55.6053 18.9422,-22.0559 44.00309,-36.6018 76.97044,-45.9436 l 49.00482,-13.4408 -9.3339,-114.7192 c -10.8855,-135.2171 -12.6608,-132.9141 112.747,-237.7609 61.8144,-51.276 83.5523,-75.7599 75.5213,-81.9883 -6.8838,-5.3385 -14.6822,-26.0905 -17.2575,-46.4609 -3.8629,-30.5555 0.072,-40.3652 20.1733,-53.2543 23.028,-14.294 23.7902,-16.459 6.8269,-36.0452 -15.8159,-18.6965 -16.5839,-24.8031 -7.452,-50.7927 6.2167,-16.3079 16.8898,-30.0829 23.8906,-32.0027 7.0009,-1.9199 23.1714,-4.9909 37.4308,-6.7935 19.0943,-4.4836 25.4438,-11.4991 24.777,-33.1456 -0.2807,-18.5908 8.3625,-32.0991 28.7213,-42.9512 25.0652,-14.5516 31.3023,-14.3113 55.1376,2.3366 31.8664,22.876 41.0385,21.7276 60.2267,-6.5681 12.9601,-20.2648 17.9227,-21.9289 49.005,-13.4408 26.7505,6.966 37.2099,15.9847 42.2084,39.1531 4.0973,16.0387 12.2739,31.572 18.7712,33.855 5.4789,2.4117 48.4809,-17.5229 93.776,-43.9452 197.4651,-116.0258 363.1806,-172.1558 506.3113,-169.5545 95.3777,1.3945 256.24,29.6967 370.3835,64.9368 87.2642,27.2554 108.2792,21.4974 102.3561,-25.3546 -4.8929,-38.7036 66.2405,-73.5703 83.8591,-40.6147 11.9994,21.2485 45.0887,12.92 54.2206,-13.0694 7.1066,-17.4552 14.8679,-21.5297 36.9005,-19.1411 39.8625,4.2737 56.0556,17.7506 59.6609,46.2692 2.9615,23.4258 6.274,25.0717 33.1302,16.5024 23.8006,-8.1828 33.4768,-5.272 53.4956,13.928 14.1537,13.7327 22.5861,31.2899 19.6709,40.9716 -11.9068,44.9668 -9.7231,54.015 18.046,60.8524 22.4191,5.4442 28.5428,12.9483 32.2768,42.4853 2.4466,19.3519 0.4269,36.159 -5.6841,36.9315 -31.5741,3.9917 5.0156,31.4397 92.8065,71.046 134.9348,60.5513 143.4732,70.8559 167.9855,207.4544 l 19.1227,110.3744 33.6141,-4.2496 c 43.7964,-5.5367 83.6804,7.0198 106.8951,35.1288 10.7118,11.0634 28.4153,20.2061 39.619,18.7897 12.2222,-1.5452 38.603,10.6407 60.4014,27.5461 l 39.0064,30.2509 34.1226,269.9126 c 32.5768,257.685 33.0963,270.0281 16.0738,299.0848 -9.2722,16.6942 -31.5252,37.104 -48.8284,47.5699 -16.4135,9.3185 -43.3783,33.4235 -58.3754,53.9456 -15.1259,19.5039 -38.7767,36.977 -52.0175,38.6508 -67.0934,9.5169 -68.8698,11.8202 -54.5772,124.8758 20.9883,166.0185 19.5952,171.3628 -61.7473,280.9867 -102.6966,137.1586 -244.7764,257.5727 -414.2613,349.3652 -60.0579,32.4278 -70.2199,41.9879 -72.0935,68.0946 -4.0161,41.8995 -30.7425,59.7626 -133.3321,91.3584 -68.7326,21.1068 -272.3971,71.6954 -301.9341,75.4296 -2.0371,0.2575 0.8191,39.2126 6.7421,86.0644 9.786,77.4076 12.9764,86.3133 32.0823,90.1068 36.0461,6.8258 84.6606,72.0789 90.8413,120.9678 6.3092,49.9074 -11.5685,104.9493 -41.3282,131.4771 -16.3433,13.9662 -42.4327,24.5092 -69.9459,29.9276 z" />
  </g>
</svg>
