<?xml version="1.0" standalone="no"?>
<!DOCTYPE svg PUBLIC "-//W3C//DTD SVG 20010904//EN"
 "http://www.w3.org/TR/2001/REC-SVG-20010904/DTD/svg10.dtd">
<svg version="1.0" xmlns="http://www.w3.org/2000/svg"
 width="500.000000pt" height="500.000000pt" viewBox="0 0 500.000000 500.000000"
 preserveAspectRatio="xMidYMid meet">

<g transform="translate(0.000000,500.000000) scale(0.100000,-0.100000)"
fill="#000000" stroke="none">
<path d="M2440 3855 c-51 -23 -73 -59 -78 -128 l-4 -58 51 -50 51 -49 0 -75
c0 -41 -2 -75 -4 -75 -29 0 -232 -24 -299 -36 -111 -19 -134 -29 -147 -69 -9
-27 -21 -36 -93 -64 -197 -80 -400 -223 -489 -345 -27 -38 -28 -42 -28 -172
l0 -133 -37 -6 c-59 -10 -91 -25 -107 -50 -9 -13 -28 -26 -44 -30 -16 -3 -40
-17 -53 -31 -24 -25 -24 -28 -27 -284 -3 -293 0 -308 66 -337 20 -10 51 -30
68 -46 21 -19 47 -30 80 -35 l49 -7 5 -112 c6 -132 4 -130 138 -216 66 -42 90
-63 83 -70 -6 -6 -11 -27 -11 -47 0 -30 5 -39 26 -49 24 -11 25 -13 11 -34
-13 -20 -13 -26 -1 -50 8 -15 20 -27 27 -28 7 -1 23 -2 37 -2 19 -2 26 -8 28
-29 2 -18 12 -30 33 -38 26 -11 32 -10 53 9 28 26 37 26 59 1 15 -18 20 -19
49 -7 25 10 34 20 36 43 2 16 8 32 14 35 5 3 49 -11 96 -31 205 -88 372 -122
510 -102 92 13 244 60 350 108 81 37 102 34 102 -12 0 -38 73 -63 86 -29 9 22
42 18 54 -6 9 -16 17 -19 38 -14 38 9 52 24 52 52 0 23 3 25 30 20 24 -5 33
-1 50 20 12 15 18 33 14 42 -17 42 -16 51 10 61 21 8 26 16 26 45 0 19 -4 35
-10 35 -31 0 1 31 81 80 123 75 130 86 137 221 l5 109 33 0 c43 0 80 17 99 47
9 12 25 23 36 23 12 0 36 15 55 34 l34 34 0 265 c0 253 -1 265 -21 291 -11 15
-35 32 -53 40 -17 7 -46 27 -63 45 -17 17 -42 31 -55 31 -66 1 -68 3 -68 114
0 163 -2 168 -94 264 -116 120 -268 219 -443 287 -62 24 -73 32 -78 57 -9 40
-37 54 -140 72 -69 12 -272 36 -301 36 -2 0 -4 38 -4 84 0 76 2 85 20 91 34
11 73 80 73 128 0 49 -24 100 -56 122 -35 23 -106 28 -147 10z m103 -19 c61
-26 85 -81 66 -150 -24 -86 -146 -102 -206 -28 -19 23 -16 113 3 141 16 22 66
50 92 51 7 0 27 -6 45 -14z m-23 -341 c0 -60 -3 -75 -15 -75 -12 0 -15 14 -15
68 0 38 3 72 7 75 17 18 23 1 23 -68z m155 -120 c92 -7 242 -33 268 -46 9 -6
17 -21 17 -36 0 -44 -72 -257 -93 -275 -17 -16 -49 -18 -358 -18 -230 0 -346
4 -363 11 -21 10 -32 33 -65 139 -46 143 -49 165 -23 178 52 28 375 64 492 56
25 -2 81 -6 125 -9z m-629 -245 c25 -80 46 -129 62 -145 l25 -25 364 0 c312 0
367 2 387 15 27 18 33 32 76 173 17 56 32 102 33 102 16 0 102 -39 101 -46 -1
-5 -18 -63 -37 -129 -19 -66 -44 -151 -55 -190 l-19 -70 -481 -3 -481 -2 -20
67 c-11 38 -23 82 -27 98 -3 17 -19 73 -35 125 -16 52 -29 99 -29 105 0 9 64
39 92 44 4 0 24 -53 44 -119z m-129 -46 c33 -106 81 -277 90 -321 5 -21 3 -21
-163 -25 -161 -3 -171 -5 -220 -30 -99 -52 -164 -157 -164 -265 0 -32 -4 -43
-15 -43 -22 0 -22 427 -1 468 21 42 161 171 244 226 94 62 174 106 186 103 6
-2 25 -52 43 -113z m1266 90 c55 -28 226 -142 266 -178 13 -11 46 -47 72 -79
l49 -58 0 -230 c0 -126 -4 -229 -9 -229 -4 0 -14 34 -20 75 -17 106 -73 184
-166 233 -47 25 -59 27 -217 30 -93 2 -168 7 -168 12 0 4 7 30 14 56 8 27 25
83 36 124 41 143 81 270 86 270 2 0 28 -12 57 -26z m-220 -414 c-5 -20 -14
-20 -464 -20 -452 0 -459 0 -459 20 0 20 7 20 464 20 459 0 464 0 459 -20z
m380 -72 c62 -29 116 -80 150 -143 21 -38 22 -52 22 -290 l0 -250 -27 -50
c-32 -61 -79 -109 -132 -138 l-41 -22 -815 0 -815 0 -41 22 c-56 30 -100 78
-132 143 -27 55 -27 55 -27 285 0 202 2 236 19 279 35 92 124 166 219 186 23
4 384 7 802 7 l760 -2 58 -27z m-1971 -330 l-4 -198 -39 0 -39 0 0 -99 0 -99
40 -7 40 -7 0 -53 c0 -29 3 -60 6 -69 10 -27 -52 -20 -81 9 l-25 24 0 329 c0
328 0 329 23 349 22 21 67 34 77 24 3 -4 4 -95 2 -203z m2304 202 c8 0 23 -9
34 -20 19 -19 20 -33 20 -355 0 -322 -1 -336 -20 -355 -11 -11 -33 -20 -50
-20 l-30 0 0 381 c0 343 2 381 16 375 9 -3 22 -6 30 -6z m-2436 -243 l0 -174
-30 5 -30 4 0 -83 c0 -92 4 -103 38 -113 17 -6 22 -15 22 -42 0 -19 -2 -34 -5
-34 -21 0 -65 34 -69 53 -3 12 -7 123 -10 246 -5 237 0 276 41 300 42 24 43
19 43 -162z m2577 149 l28 -24 0 -256 c0 -242 -1 -256 -20 -275 -11 -10 -30
-22 -42 -26 l-23 -6 0 305 c0 335 -1 331 57 282z m-2355 -293 c3 -226 10 -249
95 -337 54 -55 104 -72 234 -82 l89 -7 39 -126 c22 -69 45 -146 51 -171 6 -25
25 -88 41 -140 16 -52 29 -98 29 -102 0 -16 -343 174 -488 269 -135 89 -122
35 -122 495 0 340 2 398 14 398 12 0 15 -34 18 -197z m2109 25 c1 -333 -2
-620 -8 -634 -12 -33 -221 -162 -497 -308 -84 -45 -108 -54 -103 -39 13 45 72
241 116 383 l47 155 104 5 c136 7 182 28 244 111 25 33 50 77 57 97 6 20 13
119 16 220 3 100 10 182 14 182 5 0 9 -78 10 -172z m-481 -453 c0 -31 -156
-543 -171 -561 -17 -20 -250 -92 -340 -105 -70 -9 -99 -8 -175 5 -93 16 -301
79 -318 96 -16 16 -179 557 -172 569 3 4 268 8 590 10 538 2 586 1 586 -14z
m280 -416 c0 -11 -7 -19 -15 -19 -25 0 -41 -46 -25 -74 16 -31 5 -49 -26 -42
-31 8 -64 -13 -64 -40 0 -27 -30 -41 -42 -19 -10 17 -88 21 -88 4 0 -6 -10 -9
-22 -7 -16 2 -22 9 -20 21 2 11 -4 27 -13 38 -16 17 -16 18 8 24 14 4 34 2 45
-4 63 -33 151 12 169 87 9 40 41 63 74 55 10 -3 19 -14 19 -24z m-1716 12 c4
-5 1 -12 -4 -14 -6 -3 -5 -4 2 -2 7 1 12 8 11 14 -4 15 32 14 45 -2 6 -6 14
-25 17 -40 4 -16 23 -44 41 -64 32 -33 37 -35 81 -30 27 3 57 8 68 11 23 7 58
-12 38 -21 -7 -2 -13 -18 -13 -34 0 -22 -5 -29 -19 -29 -11 0 -23 5 -26 10
-10 16 -67 12 -86 -6 -20 -18 -39 -11 -39 15 0 28 -35 54 -63 47 -30 -7 -57
18 -39 36 7 7 12 25 12 40 0 21 -6 31 -25 38 -14 5 -25 16 -25 25 0 16 16 20
24 6z"/>
<path d="M1993 2691 c10 -4 19 -11 20 -16 1 -6 7 -9 14 -9 7 1 11 -3 10 -10
-1 -8 92 -12 340 -14 302 -2 342 0 337 13 -4 8 -10 15 -15 15 -5 0 -9 5 -9 10
0 13 57 13 62 0 2 -7 11 -5 23 4 18 14 -23 15 -390 15 -225 0 -402 -4 -392 -8z"/>
<path d="M1581 2612 c-23 -21 -41 -47 -41 -56 0 -10 5 -14 12 -10 7 4 8 3 4
-4 -4 -7 -14 -12 -22 -12 -8 0 -13 -4 -10 -9 4 -5 0 -11 -6 -13 -10 -4 -13
-63 -13 -255 l0 -250 36 -59 c73 -118 159 -149 408 -142 133 3 141 4 166 28
l27 25 -209 5 c-192 5 -212 7 -255 28 -63 31 -103 83 -118 155 -14 69 -11 475
3 484 6 4 7 0 2 -8 -6 -11 -5 -12 5 -2 7 7 14 23 15 35 1 13 7 23 14 23 7 0
18 8 25 17 7 10 15 16 18 13 2 -3 5 2 5 9 0 12 -5 13 -21 4 -19 -10 -20 -10
-7 6 28 34 2 26 -38 -12z"/>
<path d="M1685 2594 c-43 -22 -64 -44 -86 -86 -17 -33 -19 -61 -19 -255 0
-207 1 -220 23 -258 12 -21 42 -53 65 -70 l44 -30 766 -3 c552 -2 779 0 808 9
46 12 116 77 133 122 14 37 14 400 0 450 -13 47 -63 106 -106 123 -26 11 -180
14 -815 14 -691 0 -787 -2 -813 -16z m310 -145 c122 -31 190 -171 136 -278
-62 -121 -213 -157 -311 -74 -95 79 -99 230 -8 308 35 29 85 51 126 54 7 1 33
-4 57 -10z m1169 -21 c50 -28 96 -110 96 -172 0 -66 -40 -140 -92 -170 -70
-41 -126 -44 -194 -11 -99 48 -141 144 -107 245 40 120 181 171 297 108z
m-524 -383 l31 -45 -166 0 c-91 0 -165 3 -165 8 0 4 14 24 31 45 l30 37 104 0
104 0 31 -45z"/>
<path d="M1878 2364 c-36 -19 -58 -63 -58 -114 0 -32 7 -48 34 -78 32 -34 38
-37 91 -37 53 0 59 3 91 37 28 31 34 46 34 80 0 48 -25 94 -62 114 -31 18 -97
17 -130 -2z"/>
<path d="M2975 2347 c-61 -61 -53 -154 17 -197 67 -40 155 -13 184 57 21 50
10 99 -31 140 -29 29 -39 33 -85 33 -46 0 -56 -4 -85 -33z"/>
<path d="M2386 2023 c-6 -14 -5 -15 5 -6 7 7 10 15 7 18 -3 3 -9 -2 -12 -12z"/>
<path d="M3690 1990 c0 -5 -6 -10 -14 -10 -7 0 -19 -6 -25 -14 -9 -11 -6 -12
21 -7 30 6 55 41 29 41 -6 0 -11 -4 -11 -10z"/>
<path d="M3798 2052 c-24 -14 -28 -23 -28 -59 0 -47 7 -52 40 -25 17 14 21 26
18 59 l-3 42 -27 -17z"/>
<path d="M2675 1648 c-90 -28 -196 -33 -285 -13 -128 29 -142 30 -138 9 6 -37
97 -58 248 -59 156 0 250 20 250 55 0 28 -9 29 -75 8z"/>
</g>
</svg>
